<mxfile host="app.diagrams.net" modified="2022-09-02T07:09:38.745Z" agent="5.0 (Windows NT 10.0; Win64; x64) AppleWebKit/537.36 (KHTML, like Gecko) Chrome/104.0.0.0 Safari/537.36" etag="yVNBBVJJHJZsKfjrufkH" version="20.2.8" type="github">
  <diagram id="7Jv7WAlVoEaA0JNSF2Ru" name="Page-1">
    <mxGraphModel dx="1038" dy="571" grid="1" gridSize="10" guides="1" tooltips="1" connect="1" arrows="1" fold="1" page="1" pageScale="1" pageWidth="850" pageHeight="1100" background="none" math="0" shadow="0">
      <root>
        <mxCell id="0" />
        <mxCell id="1" parent="0" />
        <mxCell id="mmSLQfshKdV-ZoFoEIIY-2" value="Screee-1 For Patient" style="text;html=1;strokeColor=none;fillColor=none;align=center;verticalAlign=middle;whiteSpace=wrap;rounded=0;" parent="1" vertex="1">
          <mxGeometry x="100" y="80" width="130" height="30" as="geometry" />
        </mxCell>
        <mxCell id="mmSLQfshKdV-ZoFoEIIY-17" value="" style="shape=table;html=1;whiteSpace=wrap;startSize=0;container=1;collapsible=0;childLayout=tableLayout;swimlaneLine=1;fillColor=#f5f5f5;fontColor=#333333;strokeColor=#666666;" parent="1" vertex="1">
          <mxGeometry x="80" y="120" width="200" height="240" as="geometry" />
        </mxCell>
        <mxCell id="mmSLQfshKdV-ZoFoEIIY-18" value="" style="shape=tableRow;horizontal=0;startSize=0;swimlaneHead=0;swimlaneBody=0;top=0;left=0;bottom=0;right=0;collapsible=0;dropTarget=0;fillColor=none;points=[[0,0.5],[1,0.5]];portConstraint=eastwest;" parent="mmSLQfshKdV-ZoFoEIIY-17" vertex="1">
          <mxGeometry width="200" height="40" as="geometry" />
        </mxCell>
        <mxCell id="mmSLQfshKdV-ZoFoEIIY-19" value="Doctor-1 Clinic" style="shape=partialRectangle;html=1;whiteSpace=wrap;connectable=0;fillColor=none;top=0;left=0;bottom=0;right=0;overflow=hidden;align=left;" parent="mmSLQfshKdV-ZoFoEIIY-18" vertex="1">
          <mxGeometry width="200" height="40" as="geometry">
            <mxRectangle width="200" height="40" as="alternateBounds" />
          </mxGeometry>
        </mxCell>
        <mxCell id="mmSLQfshKdV-ZoFoEIIY-22" value="" style="shape=tableRow;horizontal=0;startSize=0;swimlaneHead=0;swimlaneBody=0;top=0;left=0;bottom=0;right=0;collapsible=0;dropTarget=0;fillColor=none;points=[[0,0.5],[1,0.5]];portConstraint=eastwest;" parent="mmSLQfshKdV-ZoFoEIIY-17" vertex="1">
          <mxGeometry y="40" width="200" height="40" as="geometry" />
        </mxCell>
        <mxCell id="mmSLQfshKdV-ZoFoEIIY-23" value="&lt;span style=&quot;&quot;&gt;Doctor-2 Clinic&lt;/span&gt;" style="shape=partialRectangle;html=1;whiteSpace=wrap;connectable=0;fillColor=none;top=0;left=0;bottom=0;right=0;overflow=hidden;align=left;" parent="mmSLQfshKdV-ZoFoEIIY-22" vertex="1">
          <mxGeometry width="200" height="40" as="geometry">
            <mxRectangle width="200" height="40" as="alternateBounds" />
          </mxGeometry>
        </mxCell>
        <mxCell id="mmSLQfshKdV-ZoFoEIIY-26" value="" style="shape=tableRow;horizontal=0;startSize=0;swimlaneHead=0;swimlaneBody=0;top=0;left=0;bottom=0;right=0;collapsible=0;dropTarget=0;fillColor=none;points=[[0,0.5],[1,0.5]];portConstraint=eastwest;" parent="mmSLQfshKdV-ZoFoEIIY-17" vertex="1">
          <mxGeometry y="80" width="200" height="40" as="geometry" />
        </mxCell>
        <mxCell id="mmSLQfshKdV-ZoFoEIIY-27" value="&lt;span style=&quot;&quot;&gt;Doctor-3 Clinic&lt;/span&gt;" style="shape=partialRectangle;html=1;whiteSpace=wrap;connectable=0;fillColor=none;top=0;left=0;bottom=0;right=0;overflow=hidden;align=left;" parent="mmSLQfshKdV-ZoFoEIIY-26" vertex="1">
          <mxGeometry width="200" height="40" as="geometry">
            <mxRectangle width="200" height="40" as="alternateBounds" />
          </mxGeometry>
        </mxCell>
        <mxCell id="mmSLQfshKdV-ZoFoEIIY-30" style="shape=tableRow;horizontal=0;startSize=0;swimlaneHead=0;swimlaneBody=0;top=0;left=0;bottom=0;right=0;collapsible=0;dropTarget=0;fillColor=none;points=[[0,0.5],[1,0.5]];portConstraint=eastwest;" parent="mmSLQfshKdV-ZoFoEIIY-17" vertex="1">
          <mxGeometry y="120" width="200" height="40" as="geometry" />
        </mxCell>
        <mxCell id="mmSLQfshKdV-ZoFoEIIY-31" value="&lt;span style=&quot;&quot;&gt;Doctor-4 Clinic&lt;/span&gt;" style="shape=partialRectangle;html=1;whiteSpace=wrap;connectable=0;fillColor=none;top=0;left=0;bottom=0;right=0;overflow=hidden;align=left;" parent="mmSLQfshKdV-ZoFoEIIY-30" vertex="1">
          <mxGeometry width="200" height="40" as="geometry">
            <mxRectangle width="200" height="40" as="alternateBounds" />
          </mxGeometry>
        </mxCell>
        <mxCell id="mmSLQfshKdV-ZoFoEIIY-37" style="shape=tableRow;horizontal=0;startSize=0;swimlaneHead=0;swimlaneBody=0;top=0;left=0;bottom=0;right=0;collapsible=0;dropTarget=0;fillColor=none;points=[[0,0.5],[1,0.5]];portConstraint=eastwest;" parent="mmSLQfshKdV-ZoFoEIIY-17" vertex="1">
          <mxGeometry y="160" width="200" height="40" as="geometry" />
        </mxCell>
        <mxCell id="mmSLQfshKdV-ZoFoEIIY-38" value="" style="shape=partialRectangle;html=1;whiteSpace=wrap;connectable=0;fillColor=none;top=0;left=0;bottom=0;right=0;overflow=hidden;align=left;" parent="mmSLQfshKdV-ZoFoEIIY-37" vertex="1">
          <mxGeometry width="200" height="40" as="geometry">
            <mxRectangle width="200" height="40" as="alternateBounds" />
          </mxGeometry>
        </mxCell>
        <mxCell id="mmSLQfshKdV-ZoFoEIIY-35" style="shape=tableRow;horizontal=0;startSize=0;swimlaneHead=0;swimlaneBody=0;top=0;left=0;bottom=0;right=0;collapsible=0;dropTarget=0;fillColor=none;points=[[0,0.5],[1,0.5]];portConstraint=eastwest;" parent="mmSLQfshKdV-ZoFoEIIY-17" vertex="1">
          <mxGeometry y="200" width="200" height="40" as="geometry" />
        </mxCell>
        <mxCell id="mmSLQfshKdV-ZoFoEIIY-36" value="" style="shape=partialRectangle;html=1;whiteSpace=wrap;connectable=0;fillColor=none;top=0;left=0;bottom=0;right=0;overflow=hidden;align=left;" parent="mmSLQfshKdV-ZoFoEIIY-35" vertex="1">
          <mxGeometry width="200" height="40" as="geometry">
            <mxRectangle width="200" height="40" as="alternateBounds" />
          </mxGeometry>
        </mxCell>
        <mxCell id="mmSLQfshKdV-ZoFoEIIY-32" style="shape=partialRectangle;html=1;whiteSpace=wrap;connectable=0;fillColor=none;top=0;left=0;bottom=0;right=0;overflow=hidden;" parent="1" vertex="1">
          <mxGeometry x="360" y="280" width="200" height="40" as="geometry">
            <mxRectangle width="200" height="40" as="alternateBounds" />
          </mxGeometry>
        </mxCell>
        <mxCell id="mmSLQfshKdV-ZoFoEIIY-39" value="" style="shape=table;html=1;whiteSpace=wrap;startSize=0;container=1;collapsible=0;childLayout=tableLayout;swimlaneLine=1;fillColor=#f5f5f5;fontColor=#333333;strokeColor=#666666;" parent="1" vertex="1">
          <mxGeometry x="400" y="120" width="220" height="160" as="geometry" />
        </mxCell>
        <mxCell id="mmSLQfshKdV-ZoFoEIIY-42" value="" style="shape=tableRow;horizontal=0;startSize=0;swimlaneHead=0;swimlaneBody=0;top=0;left=0;bottom=0;right=0;collapsible=0;dropTarget=0;fillColor=none;points=[[0,0.5],[1,0.5]];portConstraint=eastwest;" parent="mmSLQfshKdV-ZoFoEIIY-39" vertex="1">
          <mxGeometry width="220" height="27" as="geometry" />
        </mxCell>
        <mxCell id="mmSLQfshKdV-ZoFoEIIY-43" value="Slot-1" style="shape=partialRectangle;html=1;whiteSpace=wrap;connectable=0;fillColor=none;top=0;left=0;bottom=0;right=0;overflow=hidden;align=left;" parent="mmSLQfshKdV-ZoFoEIIY-42" vertex="1">
          <mxGeometry width="68" height="27" as="geometry">
            <mxRectangle width="68" height="27" as="alternateBounds" />
          </mxGeometry>
        </mxCell>
        <mxCell id="mmSLQfshKdV-ZoFoEIIY-57" value="Booked" style="shape=partialRectangle;html=1;whiteSpace=wrap;connectable=0;fillColor=#ffe6cc;top=0;left=0;bottom=0;right=0;overflow=hidden;strokeColor=#d79b00;" parent="mmSLQfshKdV-ZoFoEIIY-42" vertex="1">
          <mxGeometry x="68" width="152" height="27" as="geometry">
            <mxRectangle width="152" height="27" as="alternateBounds" />
          </mxGeometry>
        </mxCell>
        <mxCell id="mmSLQfshKdV-ZoFoEIIY-44" value="" style="shape=tableRow;horizontal=0;startSize=0;swimlaneHead=0;swimlaneBody=0;top=0;left=0;bottom=0;right=0;collapsible=0;dropTarget=0;fillColor=none;points=[[0,0.5],[1,0.5]];portConstraint=eastwest;" parent="mmSLQfshKdV-ZoFoEIIY-39" vertex="1">
          <mxGeometry y="27" width="220" height="26" as="geometry" />
        </mxCell>
        <mxCell id="mmSLQfshKdV-ZoFoEIIY-45" value="Slot-2" style="shape=partialRectangle;html=1;whiteSpace=wrap;connectable=0;fillColor=none;top=0;left=0;bottom=0;right=0;overflow=hidden;align=left;" parent="mmSLQfshKdV-ZoFoEIIY-44" vertex="1">
          <mxGeometry width="68" height="26" as="geometry">
            <mxRectangle width="68" height="26" as="alternateBounds" />
          </mxGeometry>
        </mxCell>
        <mxCell id="mmSLQfshKdV-ZoFoEIIY-58" value="Empty" style="shape=partialRectangle;html=1;whiteSpace=wrap;connectable=0;fillColor=#d5e8d4;top=0;left=0;bottom=0;right=0;overflow=hidden;strokeColor=#82b366;" parent="mmSLQfshKdV-ZoFoEIIY-44" vertex="1">
          <mxGeometry x="68" width="152" height="26" as="geometry">
            <mxRectangle width="152" height="26" as="alternateBounds" />
          </mxGeometry>
        </mxCell>
        <mxCell id="mmSLQfshKdV-ZoFoEIIY-46" style="shape=tableRow;horizontal=0;startSize=0;swimlaneHead=0;swimlaneBody=0;top=0;left=0;bottom=0;right=0;collapsible=0;dropTarget=0;fillColor=none;points=[[0,0.5],[1,0.5]];portConstraint=eastwest;" parent="mmSLQfshKdV-ZoFoEIIY-39" vertex="1">
          <mxGeometry y="53" width="220" height="27" as="geometry" />
        </mxCell>
        <mxCell id="mmSLQfshKdV-ZoFoEIIY-47" value="Slot-3" style="shape=partialRectangle;html=1;whiteSpace=wrap;connectable=0;fillColor=none;top=0;left=0;bottom=0;right=0;overflow=hidden;align=left;" parent="mmSLQfshKdV-ZoFoEIIY-46" vertex="1">
          <mxGeometry width="68" height="27" as="geometry">
            <mxRectangle width="68" height="27" as="alternateBounds" />
          </mxGeometry>
        </mxCell>
        <mxCell id="mmSLQfshKdV-ZoFoEIIY-59" value="Empty" style="shape=partialRectangle;html=1;whiteSpace=wrap;connectable=0;fillColor=#d5e8d4;top=0;left=0;bottom=0;right=0;overflow=hidden;strokeColor=#82b366;" parent="mmSLQfshKdV-ZoFoEIIY-46" vertex="1">
          <mxGeometry x="68" width="152" height="27" as="geometry">
            <mxRectangle width="152" height="27" as="alternateBounds" />
          </mxGeometry>
        </mxCell>
        <mxCell id="mmSLQfshKdV-ZoFoEIIY-48" style="shape=tableRow;horizontal=0;startSize=0;swimlaneHead=0;swimlaneBody=0;top=0;left=0;bottom=0;right=0;collapsible=0;dropTarget=0;fillColor=none;points=[[0,0.5],[1,0.5]];portConstraint=eastwest;" parent="mmSLQfshKdV-ZoFoEIIY-39" vertex="1">
          <mxGeometry y="80" width="220" height="27" as="geometry" />
        </mxCell>
        <mxCell id="mmSLQfshKdV-ZoFoEIIY-49" value="Slot-4" style="shape=partialRectangle;html=1;whiteSpace=wrap;connectable=0;fillColor=none;top=0;left=0;bottom=0;right=0;overflow=hidden;align=left;" parent="mmSLQfshKdV-ZoFoEIIY-48" vertex="1">
          <mxGeometry width="68" height="27" as="geometry">
            <mxRectangle width="68" height="27" as="alternateBounds" />
          </mxGeometry>
        </mxCell>
        <mxCell id="mmSLQfshKdV-ZoFoEIIY-60" style="shape=partialRectangle;html=1;whiteSpace=wrap;connectable=0;fillColor=none;top=0;left=0;bottom=0;right=0;overflow=hidden;" parent="mmSLQfshKdV-ZoFoEIIY-48" vertex="1">
          <mxGeometry x="68" width="152" height="27" as="geometry">
            <mxRectangle width="152" height="27" as="alternateBounds" />
          </mxGeometry>
        </mxCell>
        <mxCell id="mmSLQfshKdV-ZoFoEIIY-50" style="shape=tableRow;horizontal=0;startSize=0;swimlaneHead=0;swimlaneBody=0;top=0;left=0;bottom=0;right=0;collapsible=0;dropTarget=0;fillColor=none;points=[[0,0.5],[1,0.5]];portConstraint=eastwest;" parent="mmSLQfshKdV-ZoFoEIIY-39" vertex="1">
          <mxGeometry y="107" width="220" height="26" as="geometry" />
        </mxCell>
        <mxCell id="mmSLQfshKdV-ZoFoEIIY-51" style="shape=partialRectangle;html=1;whiteSpace=wrap;connectable=0;fillColor=none;top=0;left=0;bottom=0;right=0;overflow=hidden;" parent="mmSLQfshKdV-ZoFoEIIY-50" vertex="1">
          <mxGeometry width="68" height="26" as="geometry">
            <mxRectangle width="68" height="26" as="alternateBounds" />
          </mxGeometry>
        </mxCell>
        <mxCell id="mmSLQfshKdV-ZoFoEIIY-61" style="shape=partialRectangle;html=1;whiteSpace=wrap;connectable=0;fillColor=none;top=0;left=0;bottom=0;right=0;overflow=hidden;" parent="mmSLQfshKdV-ZoFoEIIY-50" vertex="1">
          <mxGeometry x="68" width="152" height="26" as="geometry">
            <mxRectangle width="152" height="26" as="alternateBounds" />
          </mxGeometry>
        </mxCell>
        <mxCell id="mmSLQfshKdV-ZoFoEIIY-52" style="shape=tableRow;horizontal=0;startSize=0;swimlaneHead=0;swimlaneBody=0;top=0;left=0;bottom=0;right=0;collapsible=0;dropTarget=0;fillColor=none;points=[[0,0.5],[1,0.5]];portConstraint=eastwest;" parent="mmSLQfshKdV-ZoFoEIIY-39" vertex="1">
          <mxGeometry y="133" width="220" height="27" as="geometry" />
        </mxCell>
        <mxCell id="mmSLQfshKdV-ZoFoEIIY-53" style="shape=partialRectangle;html=1;whiteSpace=wrap;connectable=0;fillColor=none;top=0;left=0;bottom=0;right=0;overflow=hidden;" parent="mmSLQfshKdV-ZoFoEIIY-52" vertex="1">
          <mxGeometry width="68" height="27" as="geometry">
            <mxRectangle width="68" height="27" as="alternateBounds" />
          </mxGeometry>
        </mxCell>
        <mxCell id="mmSLQfshKdV-ZoFoEIIY-62" style="shape=partialRectangle;html=1;whiteSpace=wrap;connectable=0;fillColor=none;top=0;left=0;bottom=0;right=0;overflow=hidden;" parent="mmSLQfshKdV-ZoFoEIIY-52" vertex="1">
          <mxGeometry x="68" width="152" height="27" as="geometry">
            <mxRectangle width="152" height="27" as="alternateBounds" />
          </mxGeometry>
        </mxCell>
        <mxCell id="mmSLQfshKdV-ZoFoEIIY-54" value="For Patient" style="text;html=1;strokeColor=none;fillColor=none;align=center;verticalAlign=middle;whiteSpace=wrap;rounded=0;" parent="1" vertex="1">
          <mxGeometry x="400" y="80" width="170" height="30" as="geometry" />
        </mxCell>
        <mxCell id="mmSLQfshKdV-ZoFoEIIY-56" style="edgeStyle=orthogonalEdgeStyle;rounded=0;orthogonalLoop=1;jettySize=auto;html=1;exitX=1;exitY=0.5;exitDx=0;exitDy=0;entryX=0;entryY=0.5;entryDx=0;entryDy=0;" parent="1" source="mmSLQfshKdV-ZoFoEIIY-18" edge="1">
          <mxGeometry relative="1" as="geometry">
            <mxPoint x="400" y="140" as="targetPoint" />
          </mxGeometry>
        </mxCell>
        <mxCell id="VLG5N6VkY3kx8AXxEjtz-1" value="Screee-2" style="text;html=1;strokeColor=none;fillColor=none;align=center;verticalAlign=middle;whiteSpace=wrap;rounded=0;" vertex="1" parent="1">
          <mxGeometry x="400" width="170" height="40" as="geometry" />
        </mxCell>
        <mxCell id="VLG5N6VkY3kx8AXxEjtz-2" value="Doctor-1 Clinic" style="text;html=1;strokeColor=none;fillColor=none;align=center;verticalAlign=middle;whiteSpace=wrap;rounded=0;" vertex="1" parent="1">
          <mxGeometry x="400" y="40" width="170" height="40" as="geometry" />
        </mxCell>
        <mxCell id="VLG5N6VkY3kx8AXxEjtz-23" value="" style="shape=table;html=1;whiteSpace=wrap;startSize=0;container=1;collapsible=0;childLayout=tableLayout;swimlaneLine=1;fillColor=#f5f5f5;fontColor=#333333;strokeColor=#666666;" vertex="1" parent="1">
          <mxGeometry x="400" y="320" width="220" height="160" as="geometry" />
        </mxCell>
        <mxCell id="VLG5N6VkY3kx8AXxEjtz-24" value="" style="shape=tableRow;horizontal=0;startSize=0;swimlaneHead=0;swimlaneBody=0;top=0;left=0;bottom=0;right=0;collapsible=0;dropTarget=0;fillColor=none;points=[[0,0.5],[1,0.5]];portConstraint=eastwest;" vertex="1" parent="VLG5N6VkY3kx8AXxEjtz-23">
          <mxGeometry width="220" height="27" as="geometry" />
        </mxCell>
        <mxCell id="VLG5N6VkY3kx8AXxEjtz-25" value="Slot-1" style="shape=partialRectangle;html=1;whiteSpace=wrap;connectable=0;fillColor=none;top=0;left=0;bottom=0;right=0;overflow=hidden;align=left;" vertex="1" parent="VLG5N6VkY3kx8AXxEjtz-24">
          <mxGeometry width="68" height="27" as="geometry">
            <mxRectangle width="68" height="27" as="alternateBounds" />
          </mxGeometry>
        </mxCell>
        <mxCell id="VLG5N6VkY3kx8AXxEjtz-26" value="Patient-1" style="shape=partialRectangle;html=1;whiteSpace=wrap;connectable=0;fillColor=none;top=0;left=0;bottom=0;right=0;overflow=hidden;" vertex="1" parent="VLG5N6VkY3kx8AXxEjtz-24">
          <mxGeometry x="68" width="152" height="27" as="geometry">
            <mxRectangle width="152" height="27" as="alternateBounds" />
          </mxGeometry>
        </mxCell>
        <mxCell id="VLG5N6VkY3kx8AXxEjtz-27" value="" style="shape=tableRow;horizontal=0;startSize=0;swimlaneHead=0;swimlaneBody=0;top=0;left=0;bottom=0;right=0;collapsible=0;dropTarget=0;fillColor=none;points=[[0,0.5],[1,0.5]];portConstraint=eastwest;" vertex="1" parent="VLG5N6VkY3kx8AXxEjtz-23">
          <mxGeometry y="27" width="220" height="26" as="geometry" />
        </mxCell>
        <mxCell id="VLG5N6VkY3kx8AXxEjtz-28" value="Slot-2" style="shape=partialRectangle;html=1;whiteSpace=wrap;connectable=0;fillColor=none;top=0;left=0;bottom=0;right=0;overflow=hidden;align=left;" vertex="1" parent="VLG5N6VkY3kx8AXxEjtz-27">
          <mxGeometry width="68" height="26" as="geometry">
            <mxRectangle width="68" height="26" as="alternateBounds" />
          </mxGeometry>
        </mxCell>
        <mxCell id="VLG5N6VkY3kx8AXxEjtz-29" value="Patient-2" style="shape=partialRectangle;html=1;whiteSpace=wrap;connectable=0;fillColor=none;top=0;left=0;bottom=0;right=0;overflow=hidden;" vertex="1" parent="VLG5N6VkY3kx8AXxEjtz-27">
          <mxGeometry x="68" width="152" height="26" as="geometry">
            <mxRectangle width="152" height="26" as="alternateBounds" />
          </mxGeometry>
        </mxCell>
        <mxCell id="VLG5N6VkY3kx8AXxEjtz-30" style="shape=tableRow;horizontal=0;startSize=0;swimlaneHead=0;swimlaneBody=0;top=0;left=0;bottom=0;right=0;collapsible=0;dropTarget=0;fillColor=none;points=[[0,0.5],[1,0.5]];portConstraint=eastwest;" vertex="1" parent="VLG5N6VkY3kx8AXxEjtz-23">
          <mxGeometry y="53" width="220" height="27" as="geometry" />
        </mxCell>
        <mxCell id="VLG5N6VkY3kx8AXxEjtz-31" value="Slot-3" style="shape=partialRectangle;html=1;whiteSpace=wrap;connectable=0;fillColor=none;top=0;left=0;bottom=0;right=0;overflow=hidden;align=left;" vertex="1" parent="VLG5N6VkY3kx8AXxEjtz-30">
          <mxGeometry width="68" height="27" as="geometry">
            <mxRectangle width="68" height="27" as="alternateBounds" />
          </mxGeometry>
        </mxCell>
        <mxCell id="VLG5N6VkY3kx8AXxEjtz-32" value="Patient-3" style="shape=partialRectangle;html=1;whiteSpace=wrap;connectable=0;fillColor=none;top=0;left=0;bottom=0;right=0;overflow=hidden;" vertex="1" parent="VLG5N6VkY3kx8AXxEjtz-30">
          <mxGeometry x="68" width="152" height="27" as="geometry">
            <mxRectangle width="152" height="27" as="alternateBounds" />
          </mxGeometry>
        </mxCell>
        <mxCell id="VLG5N6VkY3kx8AXxEjtz-33" style="shape=tableRow;horizontal=0;startSize=0;swimlaneHead=0;swimlaneBody=0;top=0;left=0;bottom=0;right=0;collapsible=0;dropTarget=0;fillColor=none;points=[[0,0.5],[1,0.5]];portConstraint=eastwest;" vertex="1" parent="VLG5N6VkY3kx8AXxEjtz-23">
          <mxGeometry y="80" width="220" height="27" as="geometry" />
        </mxCell>
        <mxCell id="VLG5N6VkY3kx8AXxEjtz-34" value="Slot-4" style="shape=partialRectangle;html=1;whiteSpace=wrap;connectable=0;fillColor=none;top=0;left=0;bottom=0;right=0;overflow=hidden;align=left;" vertex="1" parent="VLG5N6VkY3kx8AXxEjtz-33">
          <mxGeometry width="68" height="27" as="geometry">
            <mxRectangle width="68" height="27" as="alternateBounds" />
          </mxGeometry>
        </mxCell>
        <mxCell id="VLG5N6VkY3kx8AXxEjtz-35" style="shape=partialRectangle;html=1;whiteSpace=wrap;connectable=0;fillColor=none;top=0;left=0;bottom=0;right=0;overflow=hidden;" vertex="1" parent="VLG5N6VkY3kx8AXxEjtz-33">
          <mxGeometry x="68" width="152" height="27" as="geometry">
            <mxRectangle width="152" height="27" as="alternateBounds" />
          </mxGeometry>
        </mxCell>
        <mxCell id="VLG5N6VkY3kx8AXxEjtz-36" style="shape=tableRow;horizontal=0;startSize=0;swimlaneHead=0;swimlaneBody=0;top=0;left=0;bottom=0;right=0;collapsible=0;dropTarget=0;fillColor=none;points=[[0,0.5],[1,0.5]];portConstraint=eastwest;" vertex="1" parent="VLG5N6VkY3kx8AXxEjtz-23">
          <mxGeometry y="107" width="220" height="26" as="geometry" />
        </mxCell>
        <mxCell id="VLG5N6VkY3kx8AXxEjtz-37" style="shape=partialRectangle;html=1;whiteSpace=wrap;connectable=0;fillColor=none;top=0;left=0;bottom=0;right=0;overflow=hidden;" vertex="1" parent="VLG5N6VkY3kx8AXxEjtz-36">
          <mxGeometry width="68" height="26" as="geometry">
            <mxRectangle width="68" height="26" as="alternateBounds" />
          </mxGeometry>
        </mxCell>
        <mxCell id="VLG5N6VkY3kx8AXxEjtz-38" style="shape=partialRectangle;html=1;whiteSpace=wrap;connectable=0;fillColor=none;top=0;left=0;bottom=0;right=0;overflow=hidden;" vertex="1" parent="VLG5N6VkY3kx8AXxEjtz-36">
          <mxGeometry x="68" width="152" height="26" as="geometry">
            <mxRectangle width="152" height="26" as="alternateBounds" />
          </mxGeometry>
        </mxCell>
        <mxCell id="VLG5N6VkY3kx8AXxEjtz-39" style="shape=tableRow;horizontal=0;startSize=0;swimlaneHead=0;swimlaneBody=0;top=0;left=0;bottom=0;right=0;collapsible=0;dropTarget=0;fillColor=none;points=[[0,0.5],[1,0.5]];portConstraint=eastwest;" vertex="1" parent="VLG5N6VkY3kx8AXxEjtz-23">
          <mxGeometry y="133" width="220" height="27" as="geometry" />
        </mxCell>
        <mxCell id="VLG5N6VkY3kx8AXxEjtz-40" style="shape=partialRectangle;html=1;whiteSpace=wrap;connectable=0;fillColor=none;top=0;left=0;bottom=0;right=0;overflow=hidden;" vertex="1" parent="VLG5N6VkY3kx8AXxEjtz-39">
          <mxGeometry width="68" height="27" as="geometry">
            <mxRectangle width="68" height="27" as="alternateBounds" />
          </mxGeometry>
        </mxCell>
        <mxCell id="VLG5N6VkY3kx8AXxEjtz-41" style="shape=partialRectangle;html=1;whiteSpace=wrap;connectable=0;fillColor=none;top=0;left=0;bottom=0;right=0;overflow=hidden;" vertex="1" parent="VLG5N6VkY3kx8AXxEjtz-39">
          <mxGeometry x="68" width="152" height="27" as="geometry">
            <mxRectangle width="152" height="27" as="alternateBounds" />
          </mxGeometry>
        </mxCell>
        <mxCell id="VLG5N6VkY3kx8AXxEjtz-42" style="edgeStyle=orthogonalEdgeStyle;rounded=0;orthogonalLoop=1;jettySize=auto;html=1;exitX=1;exitY=0.5;exitDx=0;exitDy=0;entryX=0.002;entryY=0.124;entryDx=0;entryDy=0;entryPerimeter=0;" edge="1" parent="1" source="mmSLQfshKdV-ZoFoEIIY-22" target="VLG5N6VkY3kx8AXxEjtz-23">
          <mxGeometry relative="1" as="geometry" />
        </mxCell>
      </root>
    </mxGraphModel>
  </diagram>
</mxfile>
